<?xml version="1.0" encoding="UTF-8"?>
<svg version="1.1" xmlns="http://www.w3.org/2000/svg" width="159" height="78">
<path d="M0 0 C2.64 0 5.28 0 8 0 C9.98 3.96 11.96 7.92 14 12 C15.65 8.04 17.3 4.08 19 0 C21.64 0 24.28 0 27 0 C27 7.92 27 15.84 27 24 C25.02 24 23.04 24 21 24 C20.67 21.03 20.34 18.06 20 15 C18.02 19.455 18.02 19.455 16 24 C14.35 24 12.7 24 11 24 C10.01 21.36 9.02 18.72 8 16 C7.67 18.64 7.34 21.28 7 24 C4.69 24 2.38 24 0 24 C0 16.08 0 8.16 0 0 Z " fill="#000000" transform="translate(101,7)"/>
<path d="M0 0 C12 0 12 0 17 2 C19.18239184 4.67838999 18.99534471 6.06633789 18.75 9.5625 C18 13 18 13 16 16 C16.495 16.94875 16.99 17.8975 17.5 18.875 C19 22 19 22 19 24 C16.69 24 14.38 24 12 24 C11.0234375 22.20963542 10.046875 20.41927083 9.0703125 18.62890625 C8.08589976 16.83381685 8.08589976 16.83381685 6 16 C6 18.64 6 21.28 6 24 C4.02 24 2.04 24 0 24 C0 16.08 0 8.16 0 0 Z M6 6 C6 7.65 6 9.3 6 11 C7.65 11 9.3 11 11 11 C11.59070014 9.05396726 11.59070014 9.05396726 12 7 C10.93354885 5.70366379 10.93354885 5.70366379 8.4375 5.9375 C7.633125 5.958125 6.82875 5.97875 6 6 Z " fill="#000000" transform="translate(111,46)"/>
<path d="M0 0 C12 0 12 0 17 3 C19 6 19 6 18.75 9.5 C18 13 18 13 16 16 C16.495 16.94875 16.99 17.8975 17.5 18.875 C19 22 19 22 19 24 C16.69 24 14.38 24 12 24 C11.0234375 22.20963542 10.046875 20.41927083 9.0703125 18.62890625 C8.08589976 16.83381685 8.08589976 16.83381685 6 16 C6 18.64 6 21.28 6 24 C4.02 24 2.04 24 0 24 C0 16.08 0 8.16 0 0 Z M6 6 C6 7.65 6 9.3 6 11 C7.65 11 9.3 11 11 11 C11.59070014 9.05396726 11.59070014 9.05396726 12 7 C10.93354885 5.70366379 10.93354885 5.70366379 8.4375 5.9375 C7.633125 5.958125 6.82875 5.97875 6 6 Z " fill="#000000" transform="translate(31,7)"/>
<path d="M0 0 C2.31 0 4.62 0 7 0 C7 3.3 7 6.6 7 10 C9.64 10 12.28 10 15 10 C15 6.7 15 3.4 15 0 C16.98 0 18.96 0 21 0 C21 7.92 21 15.84 21 24 C19.02 24 17.04 24 15 24 C15 21.03 15 18.06 15 15 C12.36 15 9.72 15 7 15 C7 17.97 7 20.94 7 24 C4.69 24 2.38 24 0 24 C0 16.08 0 8.16 0 0 Z " fill="#000000" transform="translate(67,46)"/>
<path d="M0 0 C2.05078125 0.03255208 4.1015625 0.06510417 6.15234375 0.09765625 C14.15234375 19.3316988 14.15234375 19.3316988 14.15234375 24.09765625 C11.84234375 24.09765625 9.53234375 24.09765625 7.15234375 24.09765625 C6.82234375 22.77765625 6.49234375 21.45765625 6.15234375 20.09765625 C3.51234375 20.09765625 0.87234375 20.09765625 -1.84765625 20.09765625 C-2.17765625 21.41765625 -2.50765625 22.73765625 -2.84765625 24.09765625 C-5.15765625 24.09765625 -7.46765625 24.09765625 -9.84765625 24.09765625 C-3.63599639 0.1921774 -3.63599639 0.1921774 0 0 Z M1.15234375 9.09765625 C0.82234375 10.74765625 0.49234375 12.39765625 0.15234375 14.09765625 C1.47234375 13.76765625 2.79234375 13.43765625 4.15234375 13.09765625 C3.49234375 11.77765625 2.83234375 10.45765625 2.15234375 9.09765625 C1.82234375 9.09765625 1.49234375 9.09765625 1.15234375 9.09765625 Z " fill="#000000" transform="translate(60.84765625,6.90234375)"/>
<path d="M0 0 C2.64 0 5.28 0 8 0 C10.64 7.92 13.28 15.84 16 24 C13.69 24 11.38 24 9 24 C8.67 22.68 8.34 21.36 8 20 C4.04 20.495 4.04 20.495 0 21 C-0.33 21.99 -0.66 22.98 -1 24 C-3.31 24 -5.62 24 -8 24 C-4.25531915 4.25531915 -4.25531915 4.25531915 0 0 Z M3 8 C2.67 9.98 2.34 11.96 2 14 C2.99 14 3.98 14 5 14 C4.67 12.02 4.34 10.04 4 8 C3.67 8 3.34 8 3 8 Z " fill="#000000" transform="translate(84,7)"/>
<path d="M0 0 C2.64 0 5.28 0 8 0 C10.64 7.92 13.28 15.84 16 24 C13.69 24 11.38 24 9 24 C8.67 22.68 8.34 21.36 8 20 C4.04 20.495 4.04 20.495 0 21 C-0.33 21.99 -0.66 22.98 -1 24 C-3.31 24 -5.62 24 -8 24 C-4.25531915 4.25531915 -4.25531915 4.25531915 0 0 Z M3 9 C2.67 10.65 2.34 12.3 2 14 C2.99 14 3.98 14 5 14 C4.67 12.35 4.34 10.7 4 9 C3.67 9 3.34 9 3 9 Z " fill="#000000" transform="translate(31,46)"/>
<path d="M0 0 C5.61 0 11.22 0 17 0 C17 1.98 17 3.96 17 6 C13.7 6 10.4 6 7 6 C7 7.32 7 8.64 7 10 C9.97 10 12.94 10 16 10 C16 11.65 16 13.3 16 15 C13.03 15 10.06 15 7 15 C7 16.32 7 17.64 7 19 C10.3 19 13.6 19 17 19 C17 20.65 17 22.3 17 24 C11.39 24 5.78 24 0 24 C0 16.08 0 8.16 0 0 Z " fill="#000000" transform="translate(91,46)"/>
<path d="M0 0 C6.6 0 13.2 0 20 0 C20 1.98 20 3.96 20 6 C17.69 6 15.38 6 13 6 C13 11.94 13 17.88 13 24 C11.02 24 9.04 24 7 24 C7 18.06 7 12.12 7 6 C4.69 6 2.38 6 0 6 C0 4.02 0 2.04 0 0 Z " fill="#000000" transform="translate(45,46)"/>
</svg>
