<?xml version="1.0" encoding="UTF-8"?>
<svg version="1.1" xmlns="http://www.w3.org/2000/svg" width="191" height="159">
<path d="M0 0 C63.03 0 126.06 0 191 0 C191 52.47 191 104.94 191 159 C127.97 159 64.94 159 0 159 C0 106.53 0 54.06 0 0 Z " fill="#FCFCFC" transform="translate(0,0)"/>
<path d="M0 0 C3.25829032 2.79161688 5.11102697 5.22205393 7 9 C7.99 9.33 8.98 9.66 10 10 C10 10.66 10 11.32 10 12 C10.66 12 11.32 12 12 12 C18.1917055 18.33310879 17.2961672 26.29778979 17.3269043 34.67651367 C16.88623765 44.78158608 14.60170068 51.4648881 7.0871582 58.35205078 C-1.83282231 64.9834166 -12.22761731 65.73907072 -23.01171875 64.61328125 C-32.13823647 62.94101195 -38.62486774 59.12241785 -44.16796875 51.64453125 C-49.73381447 42.06890147 -49.90384719 31.04773687 -47.94726562 20.37744141 C-45.55506888 11.84815024 -40.73266527 5.67346007 -33.06738281 1.22314453 C-23.75245997 -2.4912588 -9.6640644 -2.65181927 0 0 Z " fill="#EAEAEA" transform="translate(47,48)"/>
<path d="M0 0 C3.25829032 2.79161688 5.11102697 5.22205393 7 9 C7.99 9.33 8.98 9.66 10 10 C10 10.66 10 11.32 10 12 C10.66 12 11.32 12 12 12 C18.1917055 18.33310879 17.2961672 26.29778979 17.3269043 34.67651367 C16.88623765 44.78158608 14.60170068 51.4648881 7.0871582 58.35205078 C-1.83282231 64.9834166 -12.22761731 65.73907072 -23.01171875 64.61328125 C-32.13823647 62.94101195 -38.62486774 59.12241785 -44.16796875 51.64453125 C-49.73381447 42.06890147 -49.90384719 31.04773687 -47.94726562 20.37744141 C-45.55506888 11.84815024 -40.73266527 5.67346007 -33.06738281 1.22314453 C-23.75245997 -2.4912588 -9.6640644 -2.65181927 0 0 Z M-39.4453125 15.19140625 C-44.14502264 22.9375882 -44.63016157 31.5276162 -42.85107422 40.27392578 C-40.56653792 47.59151968 -35.98086805 52.84443216 -29.49560547 56.83251953 C-21.3919423 60.62353081 -12.46032781 60.62765689 -4 58 C2.80579692 54.86009213 8.06468933 49.95184615 11 43 C12.58059029 35.04765508 11.96889579 26.99860741 11 19 C10.04287109 18.56880859 10.04287109 18.56880859 9.06640625 18.12890625 C6.55033505 16.75434183 6.2188294 15.51891409 5 13 C4.01 12.67 3.02 12.34 2 12 C1.505 10.515 1.505 10.515 1 9 C0.34 9 -0.32 9 -1 9 C-1.66 7.68 -2.32 6.36 -3 5 C-17.49050984 3.2447202 -29.94640268 2.68144599 -39.4453125 15.19140625 Z " fill="#060606" transform="translate(47,48)"/>
<path d="M0 0 C3.96 0 7.92 0 12 0 C13.61626656 5.05247553 14.34166823 9.6014184 14.625 14.9375 C14.66367188 15.62134766 14.70234375 16.30519531 14.7421875 17.00976562 C14.83522412 18.67279513 14.91863787 20.33635847 15 22 C15.66 22 16.32 22 17 22 C16.97099609 20.49566406 16.97099609 20.49566406 16.94140625 18.9609375 C16.9986216 15.09317979 17.37886411 11.44982094 17.9375 7.625 C18.11152344 6.40039062 18.28554687 5.17578125 18.46484375 3.9140625 C19 1 19 1 20 0 C23.96 0 27.92 0 32 0 C32 11.22 32 22.44 32 34 C29.69 34 27.38 34 25 34 C24.505 24.1 24.505 24.1 24 14 C23.05324042 20.20720549 23.05324042 20.20720549 22.11547852 26.41577148 C21.99615967 27.18477783 21.87684082 27.95378418 21.75390625 28.74609375 C21.63345947 29.53685303 21.5130127 30.3276123 21.38891602 31.14233398 C21 33 21 33 20 34 C17.03 34 14.06 34 11 34 C10.01 27.07 9.02 20.14 8 13 C7.67 19.93 7.34 26.86 7 34 C4.69 34 2.38 34 0 34 C0 22.78 0 11.56 0 0 Z " fill="#161616" transform="translate(156,47)"/>
<path d="M0 0 C8 0 8 0 10.13671875 1.57421875 C10.64847656 2.27160156 11.16023438 2.96898437 11.6875 3.6875 C13.70725029 6.31873433 15.46495564 8.42538495 17.9375 10.6875 C20 13 20 13 20.3125 15.8125 C20.209375 16.534375 20.10625 17.25625 20 18 C17.1875 18.3125 17.1875 18.3125 14 18 C12.375 15.75 12.375 15.75 11 13 C9.68 11.68 8.36 10.36 7 9 C7 17.91 7 26.82 7 36 C9.31 33.36 11.62 30.72 14 28 C12.35 28 10.7 28 9 28 C9 26.02 9 24.04 9 22 C12.63 22 16.26 22 20 22 C20.87325108 26.5006017 21.48001953 29.77375736 18.83691406 33.74951172 C17.28486274 35.63983064 15.65822691 37.3870347 13.9375 39.125 C13.37716064 39.70531982 12.81682129 40.28563965 12.23950195 40.88354492 C7.68847003 45.20095764 7.24286791 45 0 45 C0 30.15 0 15.3 0 0 Z " fill="#0C0C0C" transform="translate(35,57)"/>
<path d="M0 0 C2.31 0 4.62 0 7 0 C7 14.85 7 29.7 7 45 C5.02 45 3.04 45 1 45 C0.67 36.75 0.34 28.5 0 20 C-0.99 22.64 -1.98 25.28 -3 28 C-3.66 28 -4.32 28 -5 28 C-5.99 26.02 -6.98 24.04 -8 22 C-8.33 26.95 -8.66 31.9 -9 37 C-14 33 -14 33 -14.63110352 30.68164062 C-14.63037842 29.84826172 -14.62965332 29.01488281 -14.62890625 28.15625 C-14.63083984 27.23972656 -14.63277344 26.32320312 -14.63476562 25.37890625 C-14.61091797 24.42886719 -14.58707031 23.47882813 -14.5625 22.5 C-14.57345703 21.54996094 -14.58441406 20.59992188 -14.59570312 19.62109375 C-14.52298333 12.72725698 -14.52298333 12.72725698 -12.08984375 9.34375 C-10 8 -10 8 -8 8 C-7.34 9.98 -6.68 11.96 -6 14 C-5.34 14 -4.68 14 -4 14 C-3.896875 13.175 -3.79375 12.35 -3.6875 11.5 C-2.88353944 7.40710988 -1.53647842 3.87459775 0 0 Z " fill="#090909" transform="translate(23,57)"/>
<path d="M0 0 C15 0 15 0 18 1 C19.42247747 3.84495493 19.20793601 6.3311796 19.25 9.5 C19.27578125 10.6653125 19.3015625 11.830625 19.328125 13.03125 C19.21984375 14.0109375 19.1115625 14.990625 19 16 C18.01 16.66 17.02 17.32 16 18 C16.99 18.66 17.98 19.32 19 20 C19.29296875 22.8203125 19.29296875 22.8203125 19.1875 26.125 C19.16042969 27.22070312 19.13335937 28.31640625 19.10546875 29.4453125 C19.07066406 30.28835937 19.03585938 31.13140625 19 32 C16.69 32 14.38 32 12 32 C11.67 28.7 11.34 25.4 11 22 C9.68 21.67 8.36 21.34 7 21 C7 24.63 7 28.26 7 32 C4.69 32 2.38 32 0 32 C0 21.44 0 10.88 0 0 Z " fill="#010101" transform="translate(85,48)"/>
<path d="M0 0 C4.29 0 8.58 0 13 0 C13.67321282 4.18654225 14.33878506 8.37406076 15 12.5625 C15.19078125 13.74392578 15.3815625 14.92535156 15.578125 16.14257812 C16.468456 21.81843825 17.27010492 27.25182969 17 33 C14.36 33 11.72 33 9 33 C9 30.36 9 27.72 9 25 C7.02 25 5.04 25 3 25 C3 27.64 3 30.28 3 33 C0.36 33 -2.28 33 -5 33 C-4.51855814 25.76177066 -3.56393335 18.60896166 -2.5 11.4375 C-2.30410278 10.09800293 -2.30410278 10.09800293 -2.10424805 8.73144531 C-1.97703369 7.8906543 -1.84981934 7.04986328 -1.71875 6.18359375 C-1.54762695 5.04748657 -1.54762695 5.04748657 -1.37304688 3.88842773 C-1 2 -1 2 0 0 Z " fill="#0E0E0E" transform="translate(136,48)"/>
<path d="M0 0 C4.29 0 8.58 0 13 0 C13.67747322 3.62327195 14.3421891 7.24815074 15 10.875 C15.19078125 11.88820313 15.3815625 12.90140625 15.578125 13.9453125 C16.73169237 20.3723307 17.26058928 26.47260057 17 33 C14.69 33 12.38 33 10 33 C9.67 30.36 9.34 27.72 9 25 C7.35 25 5.7 25 4 25 C3.67 27.64 3.34 30.28 3 33 C0.36 33 -2.28 33 -5 33 C-4.54757308 29.37423797 -4.08695367 25.74955955 -3.625 22.125 C-3.49867187 21.11179687 -3.37234375 20.09859375 -3.2421875 19.0546875 C-2.41882527 12.63246209 -1.34159508 6.334662 0 0 Z " fill="#0C0C0C" transform="translate(112,48)"/>
<path d="M0 0 C2.43375 -0.04125 4.8675 -0.0825 7.375 -0.125 C8.13989746 -0.14320801 8.90479492 -0.16141602 9.69287109 -0.18017578 C11.46287275 -0.1948117 13.23272455 -0.09928514 15 0 C17 2 17 2 17.265625 4.27734375 C17.26046875 5.15519531 17.2553125 6.03304687 17.25 6.9375 C17.25515625 7.81277344 17.2603125 8.68804687 17.265625 9.58984375 C17 12 17 12 15 15 C15.66 15.33 16.32 15.66 17 16 C17 19.63 17 23.26 17 27 C16.01 27 15.02 27 14 27 C13.67 23.7 13.34 20.4 13 17 C9.37 16.67 5.74 16.34 2 16 C2 19.63 2 23.26 2 27 C1.34 27 0.68 27 0 27 C0 18.09 0 9.18 0 0 Z " fill="#262626" transform="translate(107,84)"/>
<path d="M0 0 C13 0 13 0 17 3 C17.49609375 5.59375 17.49609375 5.59375 17.4375 8.5 C17.43621094 9.4590625 17.43492187 10.418125 17.43359375 11.40625 C17 14 17 14 15.828125 15.83203125 C12.08775487 18.22171217 7.25993051 17.15035049 3 17 C3 20.63 3 24.26 3 28 C2.01 28 1.02 28 0 28 C0 18.76 0 9.52 0 0 Z " fill="#3B3B3B" transform="translate(174,83)"/>
<path d="M0 0 C1.42505859 0.01933594 1.42505859 0.01933594 2.87890625 0.0390625 C5.4375 0.375 5.4375 0.375 8.4375 2.375 C8.625 5.5 8.625 5.5 8.4375 8.375 C7.7775 8.375 7.1175 8.375 6.4375 8.375 C6.4375 7.055 6.4375 5.735 6.4375 4.375 C2.4775 4.375 -1.4825 4.375 -5.5625 4.375 C-5.5625 10.975 -5.5625 17.575 -5.5625 24.375 C-1.9325 24.375 1.6975 24.375 5.4375 24.375 C5.7675 22.065 6.0975 19.755 6.4375 17.375 C4.1275 17.375 1.8175 17.375 -0.5625 17.375 C-0.5625 16.385 -0.5625 15.395 -0.5625 14.375 C2.7375 14.375 6.0375 14.375 9.4375 14.375 C9.71403302 23.77712264 9.71403302 23.77712264 7.4375 27.375 C4.87933084 28.65408458 2.91902006 28.61474681 0.0625 28.6875 C-0.89398438 28.72488281 -1.85046875 28.76226562 -2.8359375 28.80078125 C-5.5625 28.375 -5.5625 28.375 -7.8828125 26.98046875 C-10.48799129 22.93941235 -10.14316016 19.08017597 -10.0625 14.375 C-10.07796875 13.47265625 -10.0934375 12.5703125 -10.109375 11.640625 C-10.08589437 7.67239771 -10.06557813 5.15237826 -7.87890625 1.7734375 C-5.03653286 0.0574684 -3.30422198 -0.09890188 0 0 Z " fill="#2E2E2E" transform="translate(93.5625,82.625)"/>
<path d="M0 0 C4.51315789 2.02631579 4.51315789 2.02631579 6 5 C6.17776132 7.9520035 6.27764035 10.85872598 6.3125 13.8125 C6.34150391 14.62009766 6.37050781 15.42769531 6.40039062 16.25976562 C6.44238667 20.20416349 6.26246671 22.51318675 4.359375 26.04296875 C1.36907688 28.52333192 -0.21574247 28.61440171 -4.0625 28.5 C-5.10535156 28.4896875 -6.14820313 28.479375 -7.22265625 28.46875 C-10.38363255 27.93525189 -11.10127874 27.50555738 -13 25 C-13.38818359 22.6875 -13.38818359 22.6875 -13.3984375 20 C-13.40230469 19.030625 -13.40617188 18.06125 -13.41015625 17.0625 C-13.39855469 16.051875 -13.38695312 15.04125 -13.375 14 C-13.38660156 12.989375 -13.39820313 11.97875 -13.41015625 10.9375 C-13.40628906 9.968125 -13.40242187 8.99875 -13.3984375 8 C-13.39505371 7.113125 -13.39166992 6.22625 -13.38818359 5.3125 C-12.21716453 -1.66353307 -5.59703183 -0.6784281 0 0 Z M-11 5 C-11.30903289 6.90228305 -11.30903289 6.90228305 -11.265625 9.0625 C-11.26820313 9.85914062 -11.27078125 10.65578125 -11.2734375 11.4765625 C-11.26570312 12.30929688 -11.25796875 13.14203125 -11.25 14 C-11.25773438 14.83273438 -11.26546875 15.66546875 -11.2734375 16.5234375 C-11.27085937 17.32007813 -11.26828125 18.11671875 -11.265625 18.9375 C-11.26336914 19.66839844 -11.26111328 20.39929688 -11.25878906 21.15234375 C-11.15448561 23.24697364 -11.15448561 23.24697364 -9 25 C-6.63044614 25.31899515 -6.63044614 25.31899515 -4 25.25 C-2.6696875 25.25773437 -2.6696875 25.25773437 -1.3125 25.265625 C1.19400239 25.22052862 1.19400239 25.22052862 3 23 C3.30903289 21.09771695 3.30903289 21.09771695 3.265625 18.9375 C3.26820313 18.14085937 3.27078125 17.34421875 3.2734375 16.5234375 C3.26570313 15.69070312 3.25796875 14.85796875 3.25 14 C3.25773437 13.16726562 3.26546875 12.33453125 3.2734375 11.4765625 C3.27085937 10.67992188 3.26828125 9.88328125 3.265625 9.0625 C3.26336914 8.33160156 3.26111328 7.60070312 3.25878906 6.84765625 C3.15448561 4.75302636 3.15448561 4.75302636 1 3 C-1.36955386 2.68100485 -1.36955386 2.68100485 -4 2.75 C-4.886875 2.74484375 -5.77375 2.7396875 -6.6875 2.734375 C-9.19400239 2.77947138 -9.19400239 2.77947138 -11 5 Z " fill="#292929" transform="translate(142,83)"/>
<path d="M0 0 C0.99 0 1.98 0 3 0 C3 20.79 3 41.58 3 63 C2.01 63 1.02 63 0 63 C0 42.21 0 21.42 0 0 Z " fill="#1E1E1E" transform="translate(72,48)"/>
<path d="M0 0 C0.99 0 1.98 0 3 0 C3.05811773 3.74993479 3.09363593 7.49975352 3.125 11.25 C3.14175781 12.31347656 3.15851563 13.37695312 3.17578125 14.47265625 C3.18222656 15.49746094 3.18867188 16.52226563 3.1953125 17.578125 C3.20578613 18.52075195 3.21625977 19.46337891 3.22705078 20.43457031 C2.98804611 23.13506607 2.46364181 24.73292865 1 27 C-1.57284138 28.28642069 -3.56528953 28.24002723 -6.4375 28.3125 C-7.88962891 28.36857422 -7.88962891 28.36857422 -9.37109375 28.42578125 C-12 28 -12 28 -13.64599609 26.31225586 C-15.2910421 23.50298238 -15.34693811 21.8162865 -15.29296875 18.578125 C-15.28330078 17.55332031 -15.27363281 16.52851562 -15.26367188 15.47265625 C-15.23853516 14.40917969 -15.21339844 13.34570312 -15.1875 12.25 C-15.17396484 11.17105469 -15.16042969 10.09210938 -15.14648438 8.98046875 C-15.11116584 6.3198058 -15.06184199 3.66015704 -15 1 C-14.01 1 -13.02 1 -12 1 C-12 8.92 -12 16.84 -12 25 C-8.37 24.67 -4.74 24.34 -1 24 C-0.67 16.08 -0.34 8.16 0 0 Z " fill="#212121" transform="translate(167,83)"/>
<path d="M0 0 C8.49609375 -0.09765625 8.49609375 -0.09765625 11 0 C12 1 12 1 12.1328125 3.03125 C12.13023438 3.8459375 12.12765625 4.660625 12.125 5.5 C12.12757812 6.3146875 12.13015625 7.129375 12.1328125 7.96875 C12 10 12 10 11 11 C7.3308423 11.14310287 3.67284559 11.04221662 0 11 C0 7.37 0 3.74 0 0 Z " fill="#F5F5F5" transform="translate(109,86)"/>
<path d="M0 0 C1.60875 -0.04125 3.2175 -0.0825 4.875 -0.125 C5.77992188 -0.14820312 6.68484375 -0.17140625 7.6171875 -0.1953125 C10 0 10 0 12 2 C12.33870968 8.32258065 12.33870968 8.32258065 11 11 C7.37 11 3.74 11 0 11 C0 7.37 0 3.74 0 0 Z " fill="#F3F3F3" transform="translate(177,86)"/>
<path d="M0 0 C1.42505859 0.01933594 1.42505859 0.01933594 2.87890625 0.0390625 C5.4375 0.375 5.4375 0.375 8.4375 2.375 C8.625 5.5 8.625 5.5 8.4375 8.375 C7.7775 8.375 7.1175 8.375 6.4375 8.375 C6.4375 7.055 6.4375 5.735 6.4375 4.375 C2.4775 4.375 -1.4825 4.375 -5.5625 4.375 C-7.2123007 7.67460141 -6.94508361 11.36627884 -7.125 15 C-7.16818359 15.80179688 -7.21136719 16.60359375 -7.25585938 17.4296875 C-7.36201457 19.4112511 -7.46276855 21.39310271 -7.5625 23.375 C-8.2225 23.705 -8.8825 24.035 -9.5625 24.375 C-9.67888036 21.12530231 -9.74980581 17.8761417 -9.8125 14.625 C-9.84601563 13.70460938 -9.87953125 12.78421875 -9.9140625 11.8359375 C-10.01197089 5.08025877 -10.01197089 5.08025877 -7.89453125 1.7578125 C-5.04404064 0.06757184 -3.29897367 -0.09874479 0 0 Z " fill="#020202" transform="translate(93.5625,82.625)"/>
<path d="M0 0 C4.95 0 9.9 0 15 0 C14.67 0.66 14.34 1.32 14 2 C10.04 2 6.08 2 2 2 C2 5.96 2 9.92 2 14 C4.97 14 7.94 14 11 14 C11 14.33 11 14.66 11 15 C8.03 15 5.06 15 2 15 C2 18.96 2 22.92 2 27 C1.34 27 0.68 27 0 27 C0 18.09 0 9.18 0 0 Z " fill="#060606" transform="translate(107,84)"/>
<path d="M0 0 C0.33 0 0.66 0 1 0 C1 3.96 1 7.92 1 12 C6.445 11.505 6.445 11.505 12 11 C12.66 8.03 13.32 5.06 14 2 C14.66 2 15.32 2 16 2 C16.08131463 3.43655854 16.13933559 4.8744483 16.1875 6.3125 C16.23970703 7.51326172 16.23970703 7.51326172 16.29296875 8.73828125 C16 11 16 11 14.875 12.78125 C12.15612907 14.54851611 10.01828928 14.29091256 6.8125 14.1875 C5.72582031 14.16042969 4.63914063 14.13335937 3.51953125 14.10546875 C2.27236328 14.05326172 2.27236328 14.05326172 1 14 C1 17.3 1 20.6 1 24 C0.67 24 0.34 24 0 24 C0 16.08 0 8.16 0 0 Z " fill="#050505" transform="translate(175,86)"/>
<path d="M0 0 C0.99 0 1.98 0 3 0 C3 7.59 3 15.18 3 23 C2.01 23.33 1.02 23.66 0 24 C0 16.08 0 8.16 0 0 Z " fill="#2B2B2B" transform="translate(167,83)"/>
<path d="M0 0 C0.33 0 0.66 0 1 0 C1.01981934 0.56509277 1.03963867 1.13018555 1.06005859 1.71240234 C1.15518236 4.26707997 1.26491058 6.82092541 1.375 9.375 C1.42140625 10.70917969 1.42140625 10.70917969 1.46875 12.0703125 C1.50742188 12.92109375 1.54609375 13.771875 1.5859375 14.6484375 C1.6173584 15.43395996 1.6487793 16.21948242 1.68115234 17.02880859 C1.8399465 19.23002939 1.8399465 19.23002939 4 21 C6.65537372 21.56520003 9.29144713 21.73788198 12 22 C12 22.66 12 23.32 12 24 C10.39667209 24.08121924 8.79215974 24.13929134 7.1875 24.1875 C5.84751953 24.23970703 5.84751953 24.23970703 4.48046875 24.29296875 C2 24 2 24 0.36547852 22.77124023 C-1.38961431 20.494609 -1.36079669 19.21920031 -1.328125 16.3671875 C-1.32296875 15.47902344 -1.3178125 14.59085938 -1.3125 13.67578125 C-1.291875 12.75152344 -1.27125 11.82726562 -1.25 10.875 C-1.24484375 9.94300781 -1.2396875 9.01101562 -1.234375 8.05078125 C-1.15406388 1.15406388 -1.15406388 1.15406388 0 0 Z " fill="#0C0C0C" transform="translate(130,87)"/>
<path d="M0 0 C4.20526216 0.03614839 6.96096422 0.39950232 10.25 3.25 C10.25 3.91 10.25 4.57 10.25 5.25 C9.693125 5.08757812 9.13625 4.92515625 8.5625 4.7578125 C6.05771628 4.20777553 3.812519 4.11718744 1.25 4.125 C0.404375 4.12242188 -0.44125 4.11984375 -1.3125 4.1171875 C-3.59698944 4.24166289 -5.55991574 4.61122543 -7.75 5.25 C-5.56528199 0.73491612 -5.09287937 0.09040614 0 0 Z " fill="#111111" transform="translate(136.75,82.75)"/>
<path d="M0 0 C2.475 0.495 2.475 0.495 5 1 C5 3.97 5 6.94 5 10 C3.35 10.33 1.7 10.66 0 11 C0 7.37 0 3.74 0 0 Z " fill="#D7D7D7" transform="translate(92,53)"/>
<path d="M0 0 C0.33 0 0.66 0 1 0 C1.66 5.28 2.32 10.56 3 16 C2.67 16 2.34 16 2 16 C1.67 19.63 1.34 23.26 1 27 C0.67 27 0.34 27 0 27 C0 18.09 0 9.18 0 0 Z " fill="#C2C2C2" transform="translate(163,54)"/>
<path d="M0 0 C0.33 0 0.66 0 1 0 C1.33 5.94 1.66 11.88 2 18 C4.97 18.33 7.94 18.66 11 19 C11 19.33 11 19.66 11 20 C9.329375 20.2165625 9.329375 20.2165625 7.625 20.4375 C4.17857953 20.78372035 4.17857953 20.78372035 2 22 C1.01 21.34 0.02 20.68 -1 20 C-1.2487793 17.93701172 -1.2487793 17.93701172 -1.07421875 15.4296875 C-1.01943359 14.53378906 -0.96464844 13.63789062 -0.90820312 12.71484375 C-0.83537109 11.77769531 -0.76253906 10.84054688 -0.6875 9.875 C-0.62626953 8.93011719 -0.56503906 7.98523438 -0.50195312 7.01171875 C-0.34841324 4.67318814 -0.18053924 2.33657611 0 0 Z " fill="#5A5A5A" transform="translate(86,89)"/>
<path d="M0 0 C1.77049689 -0.05410687 3.54146849 -0.09284119 5.3125 -0.125 C6.29863281 -0.14820312 7.28476563 -0.17140625 8.30078125 -0.1953125 C11 0 11 0 14 2 C14.1875 5.125 14.1875 5.125 14 8 C13.34 8 12.68 8 12 8 C12 6.68 12 5.36 12 4 C11.30132812 3.96261719 10.60265625 3.92523438 9.8828125 3.88671875 C8.97273438 3.82097656 8.06265625 3.75523438 7.125 3.6875 C6.22007813 3.62949219 5.31515625 3.57148437 4.3828125 3.51171875 C2 3 2 3 0 0 Z " fill="#2F2F2F" transform="translate(88,83)"/>
<path d="M0 0 C0.33 0 0.66 0 1 0 C2.20568053 4.67201205 2.09382426 9.21496292 2 14 C1.01 14 0.02 14 -1 14 C-1.08333357 9.1666528 -0.95261487 4.76307437 0 0 Z " fill="#CCCCCC" transform="translate(118,53)"/>
<path d="M0 0 C-1.70828921 2.10633718 -2.52148416 2.93801608 -5.26171875 3.29296875 C-6.06222656 3.25816406 -6.86273438 3.22335938 -7.6875 3.1875 C-8.49574219 3.16042969 -9.30398437 3.13335937 -10.13671875 3.10546875 C-10.75160156 3.07066406 -11.36648437 3.03585938 -12 3 C-12.33 2.34 -12.66 1.68 -13 1 C-11.39796533 0.63631108 -9.79325797 0.28438048 -8.1875 -0.0625 C-7.29417969 -0.25972656 -6.40085937 -0.45695312 -5.48046875 -0.66015625 C-3 -1 -3 -1 0 0 Z " fill="#0C0C0C" transform="translate(102,108)"/>
<path d="M0 0 C0.33 0 0.66 0 1 0 C1.33 4.29 1.66 8.58 2 13 C1.01 13 0.02 13 -1 13 C-1.02696365 11.20841511 -1.04637917 9.41671527 -1.0625 7.625 C-1.07410156 6.62726562 -1.08570313 5.62953125 -1.09765625 4.6015625 C-1 2 -1 2 0 0 Z " fill="#CDCDCD" transform="translate(142,54)"/>
<path d="M0 0 C2.6015625 -0.29296875 2.6015625 -0.29296875 5.625 -0.1875 C7.12933594 -0.14689453 7.12933594 -0.14689453 8.6640625 -0.10546875 C9.43492188 -0.07066406 10.20578125 -0.03585938 11 0 C11 0.33 11 0.66 11 1 C10.38511719 1.10957031 9.77023438 1.21914062 9.13671875 1.33203125 C8.32847656 1.49058594 7.52023438 1.64914063 6.6875 1.8125 C5.48673828 2.03873047 5.48673828 2.03873047 4.26171875 2.26953125 C1.76554413 3.07572236 0.67577894 4.02052002 -1 6 C-1.33 5.01 -1.66 4.02 -2 3 C-1.34 2.01 -0.68 1.02 0 0 Z " fill="#131313" transform="translate(86,84)"/>
<path d="M0 0 C1.37478516 0.01740234 1.37478516 0.01740234 2.77734375 0.03515625 C3.69644531 0.04417969 4.61554688 0.05320312 5.5625 0.0625 C6.27277344 0.07410156 6.98304688 0.08570312 7.71484375 0.09765625 C7.71484375 0.42765625 7.71484375 0.75765625 7.71484375 1.09765625 C3.25984375 1.59265625 3.25984375 1.59265625 -1.28515625 2.09765625 C-1.61515625 3.08765625 -1.94515625 4.07765625 -2.28515625 5.09765625 C-3.27515625 5.09765625 -4.26515625 5.09765625 -5.28515625 5.09765625 C-2.87806166 0.12299409 -2.87806166 0.12299409 0 0 Z " fill="#4C4C4C" transform="translate(134.28515625,82.90234375)"/>
<path d="M0 0 C0.33 1.32 0.66 2.64 1 4 C0.01 4.33 -0.98 4.66 -2 5 C-2 4.34 -2 3.68 -2 3 C-4.64 3 -7.28 3 -10 3 C-10 2.67 -10 2.34 -10 2 C-9.04287109 1.90912109 -9.04287109 1.90912109 -8.06640625 1.81640625 C-6.82697266 1.69072266 -6.82697266 1.69072266 -5.5625 1.5625 C-4.73878906 1.48128906 -3.91507813 1.40007812 -3.06640625 1.31640625 C-1.01337975 1.21069185 -1.01337975 1.21069185 0 0 Z " fill="#414141" transform="translate(144,106)"/>
<path d="M0 0 C-0.33 0.99 -0.66 1.98 -1 3 C-1.99 3.33 -2.98 3.66 -4 4 C-4 3.34 -4 2.68 -4 2 C-6.64 2 -9.28 2 -12 2 C-12 1.67 -12 1.34 -12 1 C-10.56274129 0.83126522 -9.12518162 0.66509263 -7.6875 0.5 C-6.88699219 0.4071875 -6.08648437 0.314375 -5.26171875 0.21875 C-3 0 -3 0 0 0 Z " fill="#343434" transform="translate(169,107)"/>
</svg>
